# xmcd
# 
# Track frame offsets:
#     150
#     16478
#     33862
#     42576
#     64060
#     83476
#     108252
#     125775
#     149847
#     171502
#     194629
#     209694
# 
# Disc length: 3019
# 
# Revision: 0
# Processed by: cddbd v1.5.2PL0 Copyright (c) Steve Scherf et al.
# Submitted via: fre:ac v1.0.31
# 
DISCID=ba0bc90c
DTITLE=Stringy and Molly - Dancing with the Dust Devils
DYEAR=2018
DGENRE=Blues
TTITLE0=Straight Shooter
TTITLE1=Everybody Wants a Place
TTITLE2=Peppertree Squeak
TTITLE3=Wild
TTITLE4=Jumper on the Line
TTITLE5=The Pencil Wrote Invisible
TTITLE6=Death
TTITLE7=Ma
TTITLE8=Flowershop Lady
TTITLE9=Window Don't Lie
TTITLE10=Blood on the Banjo
TTITLE11=Hurt
EXTD=
EXTT0=
EXTT1=
EXTT2=
EXTT3=
EXTT4=
EXTT5=
EXTT6=
EXTT7=
EXTT8=
EXTT9=
EXTT10=
EXTT11=
PLAYORDER=
